<svg xmlns="http://www.w3.org/2000/svg" xmlns:xlink="http://www.w3.org/1999/xlink" xmlns:lucid="lucid" width="1572.75" height="1202.77"><g transform="translate(-60 -20)" lucid:page-tab-id="H~YDhfCmlpQB"><path d="M0 0h1870.87v1322.83H0z" fill="#fff"/><path d="M500 48c0-4.42 3.58-8 8-8h836.75c4.42 0 8 3.58 8 8v25.16c0 4.4-3.58 8-8 8H508c-4.42 0-8-3.6-8-8z" stroke="#000" stroke-opacity="0" stroke-width="2" fill="#fff" fill-opacity="0"/><use xlink:href="#a" transform="matrix(1,0,0,1,504,44) translate(214.9760493827161 23.657777777777778)"/><use xlink:href="#b" transform="matrix(1,0,0,1,504,44) translate(422.7871604938272 23.657777777777778)"/><use xlink:href="#c" transform="matrix(1,0,0,1,504,44) translate(534.8143209876544 23.657777777777778)"/><use xlink:href="#d" transform="matrix(1,0,0,1,504,44) translate(425.81 57.80444444444444)"/><path d="M758.6 79.8h347.44M758.62 79.8h-1.03M1106.02 79.8h1.02" stroke="#a9afb8" stroke-width="2" fill="none"/><path d="M500 89.16c0-4.42 3.58-8 8-8h837.7c4.43 0 8 3.58 8 8V92c0 4.42-3.57 8-8 8H508c-4.42 0-8-3.58-8-8z" stroke="#000" stroke-opacity="0" stroke-width="2" fill="#fff" fill-opacity="0"/><use xlink:href="#e" transform="matrix(1,0,0,1,504.00000000000045,85.15522395689881) translate(317.36637860082305 14.917037037037037)"/><use xlink:href="#f" transform="matrix(1,0,0,1,504.00000000000045,85.15522395689881) translate(370.8184362139918 14.917037037037037)"/><use xlink:href="#g" transform="matrix(1,0,0,1,504.00000000000045,85.15522395689881) translate(434.4255349794239 14.917037037037037)"/><use xlink:href="#h" transform="matrix(1,0,0,1,504.00000000000045,85.15522395689881) translate(446.8750205761317 14.917037037037037)"/><use xlink:href="#i" transform="matrix(1,0,0,1,504.00000000000045,85.15522395689881) translate(475.76802469135805 14.917037037037037)"/><use xlink:href="#j" transform="matrix(1,0,0,1,504.00000000000045,85.15522395689881) translate(501.2618518518519 14.917037037037037)"/><path d="M1369 268.77h105c3.3 0 6 2.7 6 6v102c0 3.3-2.7 6-6 6h-288c-3.3 0-6-2.7-6-6v-128c0-3.3 2.7-6 6-6h168c3.3 0 6.88 2.54 7.96 5.67zm-189 0h189" stroke="#5e5e5e" stroke-width="3" fill="#fff"/><use xlink:href="#k" transform="matrix(1,0,0,1,1188,242.7695641220733) translate(0 17.77777777777778)"/><path d="M952.26 313.77h-9.76v-2h9.76zm29.27 0h-19.5v-2h19.5zm29.27 0h-19.5v-2h19.5zm29.28 0h-19.52v-2h19.52zm58.54 0h-19.5v-2h19.5zm29.27 0h-19.52v-2h19.5zm29.27 0h-19.52v-2h19.52zm19.5 0h-9.75v-2h9.76z" fill="#5e5e5e"/><path d="M942.53 313.77h-1.03v-2h1.03zM1178.5 312.77l-18.67 11.04-1.02-1.7 15.77-9.33-15.76-9.32 1.03-1.72z" fill="#5e5e5e"/><use xlink:href="#l" transform="matrix(1,0,0,1,1044.716049382716,302.1028974554066) translate(0 14.222222222222223)"/><path d="M951.56 963.77h-9.06v-2h9.06zm27.16 0h-18.1v-2h18.1zm27.17 0h-18.12v-2h18.1zm25.1-6.87l-.92 3.42-2.53 2.53-3.42.92h-9.2v-2h8.94l2.64-.72 1.8-1.77.7-2.64v-9.9h2zm0-20.22h-2v-20.1h2zm0-30.13h-2v-20.1h2zm0-30.13h-2v-20.1h2zm0-30.14h-2V826.2h2zm0-30.13h-2v-20.1h2zm0-45.57h-2v-4.65h2zm0-14.7h-2V735.8h2zm0-30.13h-2v-20.08h2zm0-30.13h-2v-20.1h2zm0-30.13h-2v-20.1h2zm0-30.14h-2v-20.1h2zm0-30.14h-2v-20.08h2zm0-30.13h-2V555h2zm0-30.14h-2v-20.1h2zm0-30.13h-2v-14.16h2zm0-35.5h-2V464.6h2zm0-24.77h-2v-20.1h2zm0-30.13h-2v-20.1h2zm0-30.13h-2v-20.1h2zm14.38-45.18h-9.25l-2.64.7-1.8 1.8-.7 2.63v9.9h-2V354l.92-3.43 2.53-2.53 3.42-.92h9.5zm28.14 0h-18.76v-2h18.76zm28.13 0h-18.76v-2h18.75zm28.14 0h-18.77v-2h18.76zm28.12 0h-18.75v-2h18.75zm18.76 0h-9.38v-2h9.38z" fill="#5e5e5e"/><path d="M942.53 963.77h-1.03v-2h1.03zM1178.5 348.12l-18.67 11.04-1.02-1.72 15.77-9.32-15.76-9.32 1.03-1.72z" fill="#5e5e5e"/><use xlink:href="#l" transform="matrix(1,0,0,1,1014.716049382716,770.575710932326) translate(0 14.222222222222223)"/><path d="M622 226h312c3.3 0 6 2.7 6 6v422c0 3.3-2.7 6-6 6H86c-3.3 0-6-2.7-6-6V206c0-3.3 2.7-6 6-6h504c3.3 0 7.9 1.9 10.24 4.24zm-542 0h542" stroke="#5e5e5e" stroke-width="3" fill="#fff"/><use xlink:href="#m" transform="matrix(1,0,0,1,88,200) translate(0 17.77777777777778)"/><use xlink:href="#n" transform="matrix(1,0,0,1,88,200) translate(173.82716049382714 17.77777777777778)"/><path d="M309 286h105c3.3 0 6 2.7 6 6v102c0 3.3-2.7 6-6 6H126c-3.3 0-6-2.7-6-6V266c0-3.3 2.7-6 6-6h168c3.3 0 6.88 2.54 7.96 5.67zm-189 0h189" stroke="#5e5e5e" stroke-width="3" fill="#fff"/><use xlink:href="#o" transform="matrix(1,0,0,1,128,260) translate(0 17.77777777777778)"/><use xlink:href="#p" transform="matrix(1,0,0,1,132,294) translate(0 53.44444444444444)"/><path d="M809 286h105c3.3 0 6 2.7 6 6v102c0 3.3-2.7 6-6 6H626c-3.3 0-6-2.7-6-6V266c0-3.3 2.7-6 6-6h168c3.3 0 6.88 2.54 7.96 5.67zm-189 0h189" stroke="#5e5e5e" stroke-width="3" fill="#fff"/><use xlink:href="#o" transform="matrix(1,0,0,1,628,260) translate(0 17.77777777777778)"/><use xlink:href="#q" transform="matrix(1,0,0,1,632,294) translate(0 53.44444444444444)"/><path d="M809 517.38h105c3.3 0 6 2.7 6 6v102c0 3.32-2.7 6-6 6H626c-3.3 0-6-2.68-6-6v-128c0-3.3 2.7-6 6-6h168c3.3 0 6.88 2.54 7.96 5.67zm-189 0h189" stroke="#5e5e5e" stroke-width="3" fill="#fff"/><use xlink:href="#o" transform="matrix(1,0,0,1,628,491.3847820610366) translate(0 17.77777777777778)"/><use xlink:href="#r" transform="matrix(1,0,0,1,632,525.3847820610366) translate(0 53.44444444444444)"/><path d="M433.3 331h-10.8v-2h10.8zm32.35 0h-21.57v-2h21.57zm32.37 0h-21.58v-2h21.58zm22.5 0H508.8v-2h11.73zm74.6 0h-21.6v-2h21.6zm21.56 0h-10.8v-2h10.8zm-53.94 0H551.1v-2h11.64z" fill="#5e5e5e"/><path d="M422.53 331h-1.03v-2h1.03zM618.5 330l-18.67 11.04-1.02-1.72 15.77-9.32-15.76-9.32 1.03-1.72z" fill="#5e5e5e"/><use xlink:href="#l" transform="matrix(1,0,0,1,520.5329865429692,319.3333333333333) translate(0 14.222222222222223)"/><path d="M617.5 366.35h-10.8v-2h10.8zm-21.58 0h-21.57v-2h21.57zm-32.36 0h-21.58v-2h21.58zm-32.36 0h-21.58v-2h21.58zm-64.73 0H444.9v-2h21.57zm-32.36 0h-10.78v-2h10.8z" fill="#5e5e5e"/><path d="M618.5 366.35h-1.03v-2h1.03zM441.2 356.03l-15.77 9.32 15.76 9.32-1.03 1.72-18.67-11.05 18.67-11.04z" fill="#5e5e5e"/><use xlink:href="#l" transform="matrix(1,0,0,1,475.8092487539495,354.68333333333334) translate(0 14.222222222222223)"/><path d="M891 514.07h-2v-9.3h2zm0-18.6h-2v-18.6h2zm0-27.9h-2v-11.96h2zm0-33.3h-2V421.1h2zm0-22.47h-2v-9.3h2z" fill="#5e5e5e"/><path d="M891 402.53h-2v-1.03h2zM901.04 497.2L890 515.9l-11.04-18.67 1.72-1 9.32 15.76 9.32-15.76z" fill="#5e5e5e"/><use xlink:href="#l" transform="matrix(1,0,0,1,874.716049382716,434.2816374887289) translate(0 14.222222222222223)"/><path d="M309 517.38h105c3.3 0 6 2.7 6 6v102c0 3.32-2.7 6-6 6H126c-3.3 0-6-2.68-6-6v-128c0-3.3 2.7-6 6-6h168c3.3 0 6.88 2.54 7.96 5.67zm-189 0h189" stroke="#5e5e5e" stroke-width="3" fill="#fff"/><use xlink:href="#o" transform="matrix(1,0,0,1,128,491.3847820610366) translate(0 17.77777777777778)"/><use xlink:href="#s" transform="matrix(1,0,0,1,132,525.3847820610366) translate(0 53.44444444444444)"/><path d="M379.8 514.07h-2v-8.23h2zm0-16.46h-2v-16.45h2zm14.84-37.9h-9.7l-2.64.7-1.78 1.78-.7 2.65v8.1h-2v-8.37l.9-3.4 2.54-2.54 3.4-.93h9.98zm262.77-6.87l-.92 3.4-2.53 2.54-3.4.92h-9.98v-2h9.7l2.65-.72 1.77-1.78.7-2.64v-8.23h2zm-26.67 6.86h-19.67v-2h19.67zm-29.5 0h-19.68v-2h19.67zm-29.52 0h-19.66v-2h19.67zm-69.38 0h-9.3v-2h9.3zm-19.14 0H463.5v-2h19.68zm-29.5 0h-19.7v-2h19.7zm-29.53 0h-19.67v-2h19.67zm118.05 0h-9.3v-2h9.3zm115.2-23.74h-2v-16.73h2zm0-25.1h-2v-8.36h2z" fill="#5e5e5e"/><path d="M657.4 402.53h-2v-1.03h2zM389.85 497.2L378.8 515.9l-11.04-18.67 1.73-1 9.3 15.76 9.33-15.76z" fill="#5e5e5e"/><use xlink:href="#l" transform="matrix(1,0,0,1,502.32295178045956,448.0257243638516) translate(0 14.222222222222223)"/><path d="M651 748.77h283c3.3 0 6 2.7 6 6v442c0 3.3-2.7 6-6 6H166c-3.3 0-6-2.7-6-6v-468c0-3.3 2.7-6 6-6h456c3.3 0 7.78 2 9.98 4.5zm-491 0h491" stroke="#5e5e5e" stroke-width="3" fill="#fff"/><use xlink:href="#m" transform="matrix(1,0,0,1,168,722.7695641220732) translate(0 17.77777777777778)"/><use xlink:href="#t" transform="matrix(1,0,0,1,168,722.7695641220732) translate(173.82716049382714 17.77777777777778)"/><path d="M374 808.77h96.32c3.3 0 6 2.7 6 6v102c0 3.3-2.7 6-6 6H206c-3.3 0-6-2.7-6-6v-128c0-3.3 2.7-6 6-6h154c3.3 0 6.8 2.57 7.76 5.73zm-174 0h174" stroke="#5e5e5e" stroke-width="3" fill="#fff"/><use xlink:href="#o" transform="matrix(1,0,0,1,207.99999999999997,782.7695641220732) translate(0 17.77777777777778)"/><use xlink:href="#p" transform="matrix(1,0,0,1,211.99999999999997,816.7695641220732) translate(0 53.44444444444444)"/><path d="M374 1048.77h96.32c3.3 0 6 2.7 6 6v102c0 3.3-2.7 6-6 6H206c-3.3 0-6-2.7-6-6v-128c0-3.3 2.7-6 6-6h154c3.3 0 6.8 2.57 7.76 5.73zm-174 0h174" stroke="#5e5e5e" stroke-width="3" fill="#fff"/><use xlink:href="#o" transform="matrix(1,0,0,1,208.00000000000006,1022.7695641220732) translate(0 17.77777777777778)"/><use xlink:href="#r" transform="matrix(1,0,0,1,212.00000000000006,1056.7695641220732) translate(0 53.44444444444444)"/><path d="M774 808.77h96.32c3.3 0 6 2.7 6 6v102c0 3.3-2.7 6-6 6H606c-3.3 0-6-2.7-6-6v-128c0-3.3 2.7-6 6-6h154c3.3 0 6.8 2.57 7.76 5.73zm-174 0h174" stroke="#5e5e5e" stroke-width="3" fill="#fff"/><use xlink:href="#o" transform="matrix(1,0,0,1,608,782.7695641220732) translate(0 17.77777777777778)"/><use xlink:href="#u" transform="matrix(1,0,0,1,612,816.7695641220732) translate(0 53.44444444444444)"/><path d="M774 1048.77h96.32c3.3 0 6 2.7 6 6v102c0 3.3-2.7 6-6 6H606c-3.3 0-6-2.7-6-6v-128c0-3.3 2.7-6 6-6h154c3.3 0 6.8 2.57 7.76 5.73zm-174 0h174" stroke="#5e5e5e" stroke-width="3" fill="#fff"/><use xlink:href="#o" transform="matrix(1,0,0,1,608,1022.7695641220732) translate(0 17.77777777777778)"/><use xlink:href="#q" transform="matrix(1,0,0,1,612,1056.7695641220732) translate(0 53.44444444444444)"/><path d="M561 1052.7l.7 2.64 1.8 1.78 2.63.7h10.1v2h-10.36l-3.42-.9-2.53-2.54-.92-3.42v-9.9h2zm35.68 7.13h-10.23v-2h10.23zm-35.68-26.5h-2v-19.53h2zm0-29.3h-2v-19.5h2zm0-29.26h-2v-19.5h2zm0-29.27h-2v-19.52h2zm0-29.27h-2v-14.25h2zm0-35.58h-2v-13.2h2zm-3.45-38.8l2.53 2.53.92 3.4v9.9h-2v-9.62l-.7-2.65-1.8-1.76-2.63-.72h-8.22v-2h8.48zm-70.38 1.07h-8.35v-2h8.35zm25.06 0h-16.7v-2h16.7zm25.06 0h-16.72v-2h16.7z" fill="#5e5e5e"/><path d="M478.84 842.92h-1.02v-2h1.02zM598.5 1058.83l-18.67 11.04-1.02-1.72 15.77-9.32-15.76-9.32 1.03-1.7z" fill="#5e5e5e"/><use xlink:href="#l" transform="matrix(1,0,0,1,544.716049382716,880.6474737741878) translate(0 14.222222222222223)"/><path d="M637.06 1020.27h-2v-10.47h2zm0-20.93h-2v-5.2h2zm0-31.4h-2v-20.92h2zm0-31.4h-2V926.1h2z" fill="#5e5e5e"/><path d="M637.06 1021.27h-2v-1.03h2zM647.1 942.94l-1.72 1.02-9.32-15.76-9.32 15.76-1.72-1.02 11.04-18.67z" fill="#5e5e5e"/><use xlink:href="#l" transform="matrix(1,0,0,1,620.7779207070054,972.7978066031432) translate(0 14.222222222222223)"/><path d="M597.5 1129.15h-9.82v-2h9.82zm-61.32 0h-7.44v-2h7.44zm-17.26 0h-19.64v-2h19.64zm-29.46 0h-9.83v-2h9.83zm88.4 0h-11.1v-2h11.1z" fill="#5e5e5e"/><path d="M598.5 1129.15h-1.03v-2h1.03zM497.5 1118.83l-15.76 9.32 15.76 9.32-1 1.72-18.68-11.05 18.67-11.04z" fill="#5e5e5e"/><use xlink:href="#l" transform="matrix(1,0,0,1,536.1801982354095,1117.4828974554066) translate(0 14.222222222222223)"/><path d="M597.5 1093.77h-11.92v-2h11.92zm-23.83 0h-23.84v-2h23.84zm-52.67-7.13l.7 2.64 1.8 1.77 2.63.72h11.8v2h-12.06l-3.42-.92-2.53-2.53-.92-3.42v-10.83h2zm0-21.27h-2v-21.4h2zm0-32.1h-2v-21.4h2zm0-32.1h-2v-3.8h2zm0-32.1h-2v-21.4h2zm0-32.12h-2v-21.4h2zm-3.45-48.88l2.53 2.53.92 3.42v10.83h-2v-10.57l-.7-2.64-1.8-1.78-2.63-.7h-11.33v-2h11.6zm-26.46 1.08h-11.47v-2h11.46z" fill="#5e5e5e"/><path d="M598.5 1093.77h-1.03v-2h1.03zM497.5 878.83l-15.76 9.32 15.76 9.32-1 1.72-18.68-11.05 18.67-11.04z" fill="#5e5e5e"/><use xlink:href="#l" transform="matrix(1,0,0,1,504.71604938271605,976.0292341005461) translate(0 14.222222222222223)"/><path d="M1453 446h153.75c3.3 0 6 2.7 6 6v102c0 3.3-2.7 6-6 6H1186c-3.3 0-6-2.7-6-6V426c0-3.3 2.7-6 6-6h248c3.3 0 7.2 2.4 8.68 5.37zm-273 0h273" stroke="#5e5e5e" stroke-width="3" fill="#fff"/><g><use xlink:href="#v" transform="matrix(1,0,0,1,1188,420.00000000000006) translate(0 17.77777777777778)"/><use xlink:href="#w" transform="matrix(1,0,0,1,1188,420.00000000000006) translate(160.18518518518516 17.77777777777778)"/></g><path d="M952.26 491h-9.76v-2h9.76zm29.27 0h-19.5v-2h19.5zm23.82 0H991.3v-2h14.05zm64 0h-19.52v-2h19.52zm29.27 0h-19.5v-2h19.5zm29.27 0h-19.52v-2h19.5zm29.27 0h-19.52v-2h19.52zm19.5 0h-9.75v-2h9.76zm-136.6 0h-4.16v-2h4.18z" fill="#5e5e5e"/><path d="M942.53 491h-1.03v-2h1.03zM1178.5 490l-18.67 11.04-1.02-1.72 15.77-9.32-15.76-9.32 1.03-1.72z" fill="#5e5e5e"/><g><use xlink:href="#l" transform="matrix(1,0,0,1,1005.3457000460285,479.33333333333337) translate(0 14.222222222222223)"/></g><path d="M952.6 1084.23h-10.1v-2h10.1zm30.3 0h-20.2v-2h20.2zm30.3 0H993v-2h20.2zm30.3 0h-20.2v-2h20.2zm30.3 0h-20.2v-2h20.2zm27.2-6.87l-.92 3.42-2.53 2.53-3.42.93h-10.23v-2h9.97l2.64-.7 1.8-1.8.7-2.63v-9.98h2zm0-20.35h-2v-20.2h2zm0-30.32h-2v-20.23h2zm0-30.34h-2v-20.22h2zm0-30.33h-2v-20.2h2zm0-30.32h-2v-20.22h2zm0-30.33h-2v-20.23h2zm0-30.34h-2v-20.1h2zm0-41.43h-2v-9.1h2zm0-19.22h-2v-20.22h2zm0-30.33h-2V763.8h2zm0-30.34h-2v-20.22h2zm0-30.33h-2v-20.22h2zm0-30.33h-2V672.8h2zm0-30.34h-2v-20.22h2zm0-30.33h-2v-20.22h2zm0-30.33h-2V581.8h2zm0-30.33h-2v-20.24h2zm16.78-45.46h-11.65l-2.64.72-1.8 1.77-.7 2.65v9.97h-2V531.1l.92-3.4 2.53-2.53 3.42-.93h11.9zm35.34 0h-23.56v-2h23.56zm23.56 0h-11.78v-2h11.78z" fill="#5e5e5e"/><path d="M942.53 1084.23h-1.03v-2h1.03zM1178.5 525.24l-18.67 11.04-1.02-1.72 15.77-9.32-15.76-9.32 1.03-1.72z" fill="#5e5e5e"/><g><use xlink:href="#l" transform="matrix(1,0,0,1,1084.716049382716,833.5702019206477) translate(0 14.222222222222223)"/></g><defs><path fill="#a9afb8" d="M24-248c93 1 206-16 204 79-1 75-69 88-152 82V0H24v-248zm52 121c47 0 100 7 100-41 0-47-54-39-100-39v80" id="x"/><path fill="#a9afb8" d="M110-194c64 0 96 36 96 99 0 64-35 99-97 99-61 0-95-36-95-99 0-62 34-99 96-99zm-1 164c35 0 45-28 45-65 0-40-10-65-43-65-34 0-45 26-45 65 0 36 10 65 43 65" id="y"/><path fill="#a9afb8" d="M137-138c1-29-70-34-71-4 15 46 118 7 119 86 1 83-164 76-172 9l43-7c4 19 20 25 44 25 33 8 57-30 24-41C81-84 22-81 20-136c-2-80 154-74 161-7" id="z"/><path fill="#a9afb8" d="M25-224v-37h50v37H25zM25 0v-190h50V0H25" id="A"/><path fill="#a9afb8" d="M115-3C79 11 28 4 28-45v-112H4v-33h27l15-45h31v45h36v33H77v99c-1 23 16 31 38 25v30" id="B"/><path fill="#a9afb8" d="M135-194c87-1 58 113 63 194h-50c-7-57 23-157-34-157-59 0-34 97-39 157H25l-1-190h47c2 12-1 28 3 38 12-26 28-41 61-42" id="C"/><path fill="#a9afb8" d="M169-182c-1-43-94-46-97-3 18 66 151 10 154 114 3 95-165 93-204 36-6-8-10-19-12-30l50-8c3 46 112 56 116 5-17-69-150-10-154-114-4-87 153-88 188-35 5 8 8 18 10 28" id="D"/><path fill="#a9afb8" d="M114-157C55-157 80-60 75 0H25v-261h50l-1 109c12-26 28-41 61-42 86-1 58 113 63 194h-50c-7-57 23-157-34-157" id="E"/><path fill="#a9afb8" d="M133-34C117-15 103 5 69 4 32 3 11-16 11-54c-1-60 55-63 116-61 1-26-3-47-28-47-18 1-26 9-28 27l-52-2c7-38 36-58 82-57s74 22 75 68l1 82c-1 14 12 18 25 15v27c-30 8-71 5-69-32zm-48 3c29 0 43-24 42-57-32 0-66-3-65 30 0 17 8 27 23 27" id="F"/><path fill="#a9afb8" d="M135-150c-39-12-60 13-60 57V0H25l-1-190h47c2 13-1 29 3 40 6-28 27-53 61-41v41" id="G"/><path fill="#a9afb8" d="M195-6C206 82 75 100 31 46c-4-6-6-13-8-21l49-6c3 16 16 24 34 25 40 0 42-37 40-79-11 22-30 35-61 35-53 0-70-43-70-97 0-56 18-96 73-97 30 0 46 14 59 34l2-30h47zm-90-29c32 0 41-27 41-63 0-35-9-62-40-62-32 0-39 29-40 63 0 36 9 62 39 62" id="H"/><g id="a"><use transform="matrix(0.0728395061728395,0,0,0.0728395061728395,0,0)" xlink:href="#x"/><use transform="matrix(0.0728395061728395,0,0,0.0728395061728395,17.48148148148148,0)" xlink:href="#y"/><use transform="matrix(0.0728395061728395,0,0,0.0728395061728395,33.43333333333333,0)" xlink:href="#z"/><use transform="matrix(0.0728395061728395,0,0,0.0728395061728395,48.00123456790123,0)" xlink:href="#A"/><use transform="matrix(0.0728395061728395,0,0,0.0728395061728395,55.28518518518518,0)" xlink:href="#B"/><use transform="matrix(0.0728395061728395,0,0,0.0728395061728395,63.95308641975308,0)" xlink:href="#A"/><use transform="matrix(0.0728395061728395,0,0,0.0728395061728395,71.23703703703703,0)" xlink:href="#y"/><use transform="matrix(0.0728395061728395,0,0,0.0728395061728395,87.18888888888888,0)" xlink:href="#C"/><use transform="matrix(0.0728395061728395,0,0,0.0728395061728395,103.14074074074074,0)" xlink:href="#D"/><use transform="matrix(0.0728395061728395,0,0,0.0728395061728395,120.62222222222222,0)" xlink:href="#E"/><use transform="matrix(0.0728395061728395,0,0,0.0728395061728395,136.57407407407408,0)" xlink:href="#F"/><use transform="matrix(0.0728395061728395,0,0,0.0728395061728395,151.14197530864197,0)" xlink:href="#G"/><use transform="matrix(0.0728395061728395,0,0,0.0728395061728395,161.3395061728395,0)" xlink:href="#A"/><use transform="matrix(0.0728395061728395,0,0,0.0728395061728395,168.62345679012344,0)" xlink:href="#C"/><use transform="matrix(0.0728395061728395,0,0,0.0728395061728395,184.57530864197528,0)" xlink:href="#H"/></g><path fill="#a9afb8" d="M135-194c53 0 70 44 70 98 0 56-19 98-73 100-31 1-45-17-59-34 3 33 2 69 2 105H25l-1-265h48c2 10 0 23 3 31 11-24 29-35 60-35zM114-30c33 0 39-31 40-66 0-38-9-64-40-64-56 0-55 130 0 130" id="I"/><path fill="#a9afb8" d="M190-63c-7 42-38 67-86 67-59 0-84-38-90-98-12-110 154-137 174-36l-49 2c-2-19-15-32-35-32-30 0-35 28-38 64-6 74 65 87 74 30" id="J"/><path fill="#a9afb8" d="M147 0L96-86 75-71V0H25v-261h50v150l67-79h53l-66 74L201 0h-54" id="K"/><path fill="#a9afb8" d="M185-48c-13 30-37 53-82 52C43 2 14-33 14-96s30-98 90-98c62 0 83 45 84 108H66c0 31 8 55 39 56 18 0 30-7 34-22zm-45-69c5-46-57-63-70-21-2 6-4 13-4 21h74" id="L"/><g id="b"><use transform="matrix(0.0728395061728395,0,0,0.0728395061728395,0,0)" xlink:href="#I"/><use transform="matrix(0.0728395061728395,0,0,0.0728395061728395,15.95185185185185,0)" xlink:href="#F"/><use transform="matrix(0.0728395061728395,0,0,0.0728395061728395,30.51975308641975,0)" xlink:href="#J"/><use transform="matrix(0.0728395061728395,0,0,0.0728395061728395,45.08765432098765,0)" xlink:href="#K"/><use transform="matrix(0.0728395061728395,0,0,0.0728395061728395,59.65555555555555,0)" xlink:href="#F"/><use transform="matrix(0.0728395061728395,0,0,0.0728395061728395,74.22345679012345,0)" xlink:href="#H"/><use transform="matrix(0.0728395061728395,0,0,0.0728395061728395,90.1753086419753,0)" xlink:href="#L"/></g><path fill="#a9afb8" d="M88-194c31-1 46 15 58 34l-1-101h50l1 261h-48c-2-10 0-23-3-31C134-8 116 4 84 4 32 4 16-41 15-95c0-56 19-97 73-99zm17 164c33 0 40-30 41-66 1-37-9-64-41-64s-38 30-39 65c0 43 13 65 39 65" id="M"/><path fill="#a9afb8" d="M220-157c-53 9-28 100-34 157h-49v-107c1-27-5-49-29-50C55-147 81-57 75 0H25l-1-190h47c2 12-1 28 3 38 10-53 101-56 108 0 13-22 24-43 59-42 82 1 51 116 57 194h-49v-107c-1-25-5-48-29-50" id="N"/><g id="c"><use transform="matrix(0.0728395061728395,0,0,0.0728395061728395,0,0)" xlink:href="#M"/><use transform="matrix(0.0728395061728395,0,0,0.0728395061728395,15.95185185185185,0)" xlink:href="#A"/><use transform="matrix(0.0728395061728395,0,0,0.0728395061728395,23.235802469135802,0)" xlink:href="#F"/><use transform="matrix(0.0728395061728395,0,0,0.0728395061728395,37.803703703703704,0)" xlink:href="#H"/><use transform="matrix(0.0728395061728395,0,0,0.0728395061728395,53.75555555555555,0)" xlink:href="#G"/><use transform="matrix(0.0728395061728395,0,0,0.0728395061728395,63.953086419753085,0)" xlink:href="#F"/><use transform="matrix(0.0728395061728395,0,0,0.0728395061728395,78.52098765432099,0)" xlink:href="#N"/></g><path fill="#a9afb8" d="M212-179c-10-28-35-45-73-45-59 0-87 40-87 99 0 60 29 101 89 101 43 0 62-24 78-52l27 14C228-24 195 4 139 4 59 4 22-46 18-125c-6-104 99-153 187-111 19 9 31 26 39 46" id="O"/><path fill="#a9afb8" d="M141-36C126-15 110 5 73 4 37 3 15-17 15-53c-1-64 63-63 125-63 3-35-9-54-41-54-24 1-41 7-42 31l-33-3c5-37 33-52 76-52 45 0 72 20 72 64v82c-1 20 7 32 28 27v20c-31 9-61-2-59-35zM48-53c0 20 12 33 32 33 41-3 63-29 60-74-43 2-92-5-92 41" id="P"/><path fill="#a9afb8" d="M135-143c-3-34-86-38-87 0 15 53 115 12 119 90S17 21 10-45l28-5c4 36 97 45 98 0-10-56-113-15-118-90-4-57 82-63 122-42 12 7 21 19 24 35" id="Q"/><path fill="#a9afb8" d="M115-194c55 1 70 41 70 98S169 2 115 4C84 4 66-9 55-30l1 105H24l-1-265h31l2 30c10-21 28-34 59-34zm-8 174c40 0 45-34 45-75s-6-73-45-74c-42 0-51 32-51 76 0 43 10 73 51 73" id="R"/><path fill="#a9afb8" d="M100-194c63 0 86 42 84 106H49c0 40 14 67 53 68 26 1 43-12 49-29l28 8c-11 28-37 45-77 45C44 4 14-33 15-96c1-61 26-98 85-98zm52 81c6-60-76-77-97-28-3 7-6 17-6 28h103" id="S"/><path fill="#a9afb8" d="M114-163C36-179 61-72 57 0H25l-1-190h30c1 12-1 29 2 39 6-27 23-49 58-41v29" id="T"/><g id="e"><use transform="matrix(0.04248971193415638,0,0,0.04248971193415638,0,0)" xlink:href="#O"/><use transform="matrix(0.04248971193415638,0,0,0.04248971193415638,11.004835390946502,0)" xlink:href="#P"/><use transform="matrix(0.04248971193415638,0,0,0.04248971193415638,19.502777777777776,0)" xlink:href="#Q"/><use transform="matrix(0.04248971193415638,0,0,0.04248971193415638,27.150925925925925,0)" xlink:href="#R"/><use transform="matrix(0.04248971193415638,0,0,0.04248971193415638,35.6488683127572,0)" xlink:href="#S"/><use transform="matrix(0.04248971193415638,0,0,0.04248971193415638,44.14681069958848,0)" xlink:href="#T"/></g><path fill="#a9afb8" d="M190 0L58-211 59 0H30v-248h39L202-35l-2-213h31V0h-41" id="U"/><path fill="#a9afb8" d="M24-231v-30h32v30H24zM24 0v-190h32V0H24" id="V"/><path fill="#a9afb8" d="M24 0v-261h32V0H24" id="W"/><path fill="#a9afb8" d="M117-194c89-4 53 116 60 194h-32v-121c0-31-8-49-39-48C34-167 62-67 57 0H25l-1-190h30c1 10-1 24 2 32 11-22 29-35 61-36" id="X"/><g id="f"><use transform="matrix(0.04248971193415638,0,0,0.04248971193415638,0,0)" xlink:href="#U"/><use transform="matrix(0.04248971193415638,0,0,0.04248971193415638,11.004835390946502,0)" xlink:href="#V"/><use transform="matrix(0.04248971193415638,0,0,0.04248971193415638,14.361522633744855,0)" xlink:href="#S"/><use transform="matrix(0.04248971193415638,0,0,0.04248971193415638,22.85946502057613,0)" xlink:href="#W"/><use transform="matrix(0.04248971193415638,0,0,0.04248971193415638,26.216152263374486,0)" xlink:href="#Q"/><use transform="matrix(0.04248971193415638,0,0,0.04248971193415638,33.864300411522635,0)" xlink:href="#S"/><use transform="matrix(0.04248971193415638,0,0,0.04248971193415638,42.36224279835391,0)" xlink:href="#X"/></g><path fill="#a9afb8" d="M32 76v-337h29V76H32" id="Y"/><use transform="matrix(0.04248971193415638,0,0,0.04248971193415638,0,0)" xlink:href="#Y" id="g"/><path fill="#a9afb8" d="M153-248C145-148 188 4 80 4 36 3 13-21 6-62l32-5c4 25 16 42 43 43 27 0 39-20 39-49v-147H72v-28h81" id="Z"/><path fill="#a9afb8" d="M84 4C-5 8 30-112 23-190h32v120c0 31 7 50 39 49 72-2 45-101 50-169h31l1 190h-30c-1-10 1-25-2-33-11 22-28 36-60 37" id="aa"/><g id="h"><use transform="matrix(0.04248971193415638,0,0,0.04248971193415638,0,0)" xlink:href="#Z"/><use transform="matrix(0.04248971193415638,0,0,0.04248971193415638,7.648148148148148,0)" xlink:href="#aa"/><use transform="matrix(0.04248971193415638,0,0,0.04248971193415638,16.14609053497942,0)" xlink:href="#X"/></g><path fill="#a9afb8" d="M101-251c82-7 93 87 43 132L82-64C71-53 59-42 53-27h129V0H18c2-99 128-94 128-182 0-28-16-43-45-43s-46 15-49 41l-32-3c6-41 34-60 81-64" id="ab"/><path fill="#a9afb8" d="M99-251c64 0 84 50 84 122C183-37 130 33 47-8c-14-7-20-23-25-40l30-5c6 39 69 39 84 7 9-19 16-44 16-74-10 22-31 35-62 35-49 0-73-33-73-83 0-54 28-83 82-83zm-1 141c31-1 51-18 51-49 0-36-14-67-51-67-34 0-49 23-49 58 0 34 15 58 49 58" id="ac"/><path fill="#a9afb8" d="M68-38c1 34 0 65-14 84H32c9-13 17-26 17-46H33v-38h35" id="ad"/><g id="i"><use transform="matrix(0.04248971193415638,0,0,0.04248971193415638,0,0)" xlink:href="#ab"/><use transform="matrix(0.04248971193415638,0,0,0.04248971193415638,8.497942386831275,0)" xlink:href="#ac"/><use transform="matrix(0.04248971193415638,0,0,0.04248971193415638,16.99588477366255,0)" xlink:href="#ad"/></g><path fill="#a9afb8" d="M101-251c68 0 85 55 85 127S166 4 100 4C33 4 14-52 14-124c0-73 17-127 87-127zm-1 229c47 0 54-49 54-102s-4-102-53-102c-51 0-55 48-55 102 0 53 5 102 54 102" id="ae"/><path fill="#a9afb8" d="M27 0v-27h64v-190l-56 39v-29l58-41h29v221h61V0H27" id="af"/><g id="j"><use transform="matrix(0.04248971193415638,0,0,0.04248971193415638,0,0)" xlink:href="#ab"/><use transform="matrix(0.04248971193415638,0,0,0.04248971193415638,8.497942386831275,0)" xlink:href="#ae"/><use transform="matrix(0.04248971193415638,0,0,0.04248971193415638,16.99588477366255,0)" xlink:href="#ab"/><use transform="matrix(0.04248971193415638,0,0,0.04248971193415638,25.493827160493822,0)" xlink:href="#af"/></g><path fill="#333" d="M30 0v-248h187v28H63v79h144v27H63v87h162V0H30" id="ag"/><path fill="#333" d="M117-194c89-4 53 116 60 194h-32v-121c0-31-8-49-39-48C34-167 62-67 57 0H25l-1-190h30c1 10-1 24 2 32 11-22 29-35 61-36" id="ah"/><path fill="#333" d="M96-169c-40 0-48 33-48 73s9 75 48 75c24 0 41-14 43-38l32 2c-6 37-31 61-74 61-59 0-76-41-82-99-10-93 101-131 147-64 4 7 5 14 7 22l-32 3c-4-21-16-35-41-35" id="ai"/><path fill="#333" d="M114-163C36-179 61-72 57 0H25l-1-190h30c1 12-1 29 2 39 6-27 23-49 58-41v29" id="aj"/><path fill="#333" d="M179-190L93 31C79 59 56 82 12 73V49c39 6 53-20 64-50L1-190h34L92-34l54-156h33" id="ak"/><path fill="#333" d="M115-194c55 1 70 41 70 98S169 2 115 4C84 4 66-9 55-30l1 105H24l-1-265h31l2 30c10-21 28-34 59-34zm-8 174c40 0 45-34 45-75s-6-73-45-74c-42 0-51 32-51 76 0 43 10 73 51 73" id="al"/><path fill="#333" d="M59-47c-2 24 18 29 38 22v24C64 9 27 4 27-40v-127H5v-23h24l9-43h21v43h35v23H59v120" id="am"/><path fill="#333" d="M24-231v-30h32v30H24zM24 0v-190h32V0H24" id="an"/><path fill="#333" d="M100-194c62-1 85 37 85 99 1 63-27 99-86 99S16-35 15-95c0-66 28-99 85-99zM99-20c44 1 53-31 53-75 0-43-8-75-51-75s-53 32-53 75 10 74 51 75" id="ao"/><g id="k"><use transform="matrix(0.06172839506172839,0,0,0.06172839506172839,0,0)" xlink:href="#ag"/><use transform="matrix(0.06172839506172839,0,0,0.06172839506172839,14.814814814814813,0)" xlink:href="#ah"/><use transform="matrix(0.06172839506172839,0,0,0.06172839506172839,27.160493827160494,0)" xlink:href="#ai"/><use transform="matrix(0.06172839506172839,0,0,0.06172839506172839,38.27160493827161,0)" xlink:href="#aj"/><use transform="matrix(0.06172839506172839,0,0,0.06172839506172839,45.617283950617285,0)" xlink:href="#ak"/><use transform="matrix(0.06172839506172839,0,0,0.06172839506172839,56.72839506172839,0)" xlink:href="#al"/><use transform="matrix(0.06172839506172839,0,0,0.06172839506172839,69.07407407407408,0)" xlink:href="#am"/><use transform="matrix(0.06172839506172839,0,0,0.06172839506172839,75.24691358024691,0)" xlink:href="#an"/><use transform="matrix(0.06172839506172839,0,0,0.06172839506172839,80.12345679012346,0)" xlink:href="#ao"/><use transform="matrix(0.06172839506172839,0,0,0.06172839506172839,92.46913580246914,0)" xlink:href="#ah"/></g><path fill="#333" d="M85 4C-2 5 27-109 22-190h50c7 57-23 150 33 157 60-5 35-97 40-157h50l1 190h-47c-2-12 1-28-3-38-12 25-28 42-61 42" id="ap"/><path fill="#333" d="M137-138c1-29-70-34-71-4 15 46 118 7 119 86 1 83-164 76-172 9l43-7c4 19 20 25 44 25 33 8 57-30 24-41C81-84 22-81 20-136c-2-80 154-74 161-7" id="aq"/><path fill="#333" d="M185-48c-13 30-37 53-82 52C43 2 14-33 14-96s30-98 90-98c62 0 83 45 84 108H66c0 31 8 55 39 56 18 0 30-7 34-22zm-45-69c5-46-57-63-70-21-2 6-4 13-4 21h74" id="ar"/><g id="l"><use transform="matrix(0.04938271604938272,0,0,0.04938271604938272,0,0)" xlink:href="#ap"/><use transform="matrix(0.04938271604938272,0,0,0.04938271604938272,10.814814814814815,0)" xlink:href="#aq"/><use transform="matrix(0.04938271604938272,0,0,0.04938271604938272,20.69135802469136,0)" xlink:href="#ar"/></g><path fill="#333" d="M30-248c87 1 191-15 191 75 0 78-77 80-158 76V0H30v-248zm33 125c57 0 124 11 124-50 0-59-68-47-124-48v98" id="as"/><path fill="#333" d="M135-143c-3-34-86-38-87 0 15 53 115 12 119 90S17 21 10-45l28-5c4 36 97 45 98 0-10-56-113-15-118-90-4-57 82-63 122-42 12 7 21 19 24 35" id="at"/><path fill="#333" d="M185-189c-5-48-123-54-124 2 14 75 158 14 163 119 3 78-121 87-175 55-17-10-28-26-33-46l33-7c5 56 141 63 141-1 0-78-155-14-162-118-5-82 145-84 179-34 5 7 8 16 11 25" id="au"/><path fill="#333" d="M106-169C34-169 62-67 57 0H25v-261h32l-1 103c12-21 28-36 61-36 89 0 53 116 60 194h-32v-121c2-32-8-49-39-48" id="av"/><path fill="#333" d="M141-36C126-15 110 5 73 4 37 3 15-17 15-53c-1-64 63-63 125-63 3-35-9-54-41-54-24 1-41 7-42 31l-33-3c5-37 33-52 76-52 45 0 72 20 72 64v82c-1 20 7 32 28 27v20c-31 9-61-2-59-35zM48-53c0 20 12 33 32 33 41-3 63-29 60-74-43 2-92-5-92 41" id="aw"/><path fill="#333" d="M177-190C167-65 218 103 67 71c-23-6-38-20-44-43l32-5c15 47 100 32 89-28v-30C133-14 115 1 83 1 29 1 15-40 15-95c0-56 16-97 71-98 29-1 48 16 59 35 1-10 0-23 2-32h30zM94-22c36 0 50-32 50-73 0-42-14-75-50-75-39 0-46 34-46 75s6 73 46 73" id="ax"/><g id="m"><use transform="matrix(0.06172839506172839,0,0,0.06172839506172839,0,0)" xlink:href="#as"/><use transform="matrix(0.06172839506172839,0,0,0.06172839506172839,14.814814814814813,0)" xlink:href="#ao"/><use transform="matrix(0.06172839506172839,0,0,0.06172839506172839,27.160493827160494,0)" xlink:href="#at"/><use transform="matrix(0.06172839506172839,0,0,0.06172839506172839,38.27160493827161,0)" xlink:href="#an"/><use transform="matrix(0.06172839506172839,0,0,0.06172839506172839,43.14814814814815,0)" xlink:href="#am"/><use transform="matrix(0.06172839506172839,0,0,0.06172839506172839,49.320987654320994,0)" xlink:href="#an"/><use transform="matrix(0.06172839506172839,0,0,0.06172839506172839,54.19753086419754,0)" xlink:href="#ao"/><use transform="matrix(0.06172839506172839,0,0,0.06172839506172839,66.54320987654322,0)" xlink:href="#ah"/><use transform="matrix(0.06172839506172839,0,0,0.06172839506172839,78.8888888888889,0)" xlink:href="#au"/><use transform="matrix(0.06172839506172839,0,0,0.06172839506172839,93.70370370370371,0)" xlink:href="#av"/><use transform="matrix(0.06172839506172839,0,0,0.06172839506172839,106.0493827160494,0)" xlink:href="#aw"/><use transform="matrix(0.06172839506172839,0,0,0.06172839506172839,118.39506172839508,0)" xlink:href="#aj"/><use transform="matrix(0.06172839506172839,0,0,0.06172839506172839,125.74074074074076,0)" xlink:href="#ah"/><use transform="matrix(0.06172839506172839,0,0,0.06172839506172839,138.08641975308643,0)" xlink:href="#an"/><use transform="matrix(0.06172839506172839,0,0,0.06172839506172839,142.96296296296296,0)" xlink:href="#ah"/><use transform="matrix(0.06172839506172839,0,0,0.06172839506172839,155.30864197530863,0)" xlink:href="#ax"/></g><g id="n"><use transform="matrix(0.06172839506172839,0,0,0.06172839506172839,0,0)" xlink:href="#aw"/><use transform="matrix(0.06172839506172839,0,0,0.06172839506172839,12.345679012345679,0)" xlink:href="#al"/><use transform="matrix(0.06172839506172839,0,0,0.06172839506172839,24.691358024691358,0)" xlink:href="#al"/></g><path fill="#333" d="M143 0L79-87 56-68V0H24v-261h32v163l83-92h37l-77 82L181 0h-38" id="ay"/><path fill="#333" d="M100-194c63 0 86 42 84 106H49c0 40 14 67 53 68 26 1 43-12 49-29l28 8c-11 28-37 45-77 45C44 4 14-33 15-96c1-61 26-98 85-98zm52 81c6-60-76-77-97-28-3 7-6 17-6 28h103" id="az"/><g id="o"><use transform="matrix(0.06172839506172839,0,0,0.06172839506172839,0,0)" xlink:href="#as"/><use transform="matrix(0.06172839506172839,0,0,0.06172839506172839,14.814814814814813,0)" xlink:href="#aw"/><use transform="matrix(0.06172839506172839,0,0,0.06172839506172839,27.160493827160494,0)" xlink:href="#ai"/><use transform="matrix(0.06172839506172839,0,0,0.06172839506172839,38.27160493827161,0)" xlink:href="#ay"/><use transform="matrix(0.06172839506172839,0,0,0.06172839506172839,49.38271604938272,0)" xlink:href="#aw"/><use transform="matrix(0.06172839506172839,0,0,0.06172839506172839,61.7283950617284,0)" xlink:href="#ax"/><use transform="matrix(0.06172839506172839,0,0,0.06172839506172839,74.07407407407408,0)" xlink:href="#az"/></g><path fill="#333" d="M212-179c-10-28-35-45-73-45-59 0-87 40-87 99 0 60 29 101 89 101 43 0 62-24 78-52l27 14C228-24 195 4 139 4 59 4 22-46 18-125c-6-104 99-153 187-111 19 9 31 26 39 46" id="aA"/><path fill="#333" d="M210-169c-67 3-38 105-44 169h-31v-121c0-29-5-50-35-48C34-165 62-65 56 0H25l-1-190h30c1 10-1 24 2 32 10-44 99-50 107 0 11-21 27-35 58-36 85-2 47 119 55 194h-31v-121c0-29-5-49-35-48" id="aB"/><path fill="#333" d="M84 4C-5 8 30-112 23-190h32v120c0 31 7 50 39 49 72-2 45-101 50-169h31l1 190h-30c-1-10 1-25-2-33-11 22-28 36-60 37" id="aC"/><g id="p"><use transform="matrix(0.06172839506172839,0,0,0.06172839506172839,0,0)" xlink:href="#aA"/><use transform="matrix(0.06172839506172839,0,0,0.06172839506172839,15.987654320987653,0)" xlink:href="#ao"/><use transform="matrix(0.06172839506172839,0,0,0.06172839506172839,28.333333333333332,0)" xlink:href="#aB"/><use transform="matrix(0.06172839506172839,0,0,0.06172839506172839,46.79012345679012,0)" xlink:href="#aB"/><use transform="matrix(0.06172839506172839,0,0,0.06172839506172839,65.24691358024691,0)" xlink:href="#aC"/><use transform="matrix(0.06172839506172839,0,0,0.06172839506172839,77.5925925925926,0)" xlink:href="#ah"/><use transform="matrix(0.06172839506172839,0,0,0.06172839506172839,89.93827160493828,0)" xlink:href="#an"/><use transform="matrix(0.06172839506172839,0,0,0.06172839506172839,94.81481481481482,0)" xlink:href="#ai"/><use transform="matrix(0.06172839506172839,0,0,0.06172839506172839,105.92592592592594,0)" xlink:href="#aw"/><use transform="matrix(0.06172839506172839,0,0,0.06172839506172839,118.27160493827162,0)" xlink:href="#am"/><use transform="matrix(0.06172839506172839,0,0,0.06172839506172839,124.44444444444446,0)" xlink:href="#an"/><use transform="matrix(0.06172839506172839,0,0,0.06172839506172839,129.320987654321,0)" xlink:href="#ao"/><use transform="matrix(0.06172839506172839,0,0,0.06172839506172839,141.66666666666666,0)" xlink:href="#ah"/></g><path fill="#333" d="M205 0l-28-72H64L36 0H1l101-248h38L239 0h-34zm-38-99l-47-123c-12 45-31 82-46 123h93" id="aD"/><g id="q"><use transform="matrix(0.06172839506172839,0,0,0.06172839506172839,0,0)" xlink:href="#aD"/><use transform="matrix(0.06172839506172839,0,0,0.06172839506172839,14.814814814814813,0)" xlink:href="#ai"/><use transform="matrix(0.06172839506172839,0,0,0.06172839506172839,25.925925925925924,0)" xlink:href="#am"/><use transform="matrix(0.06172839506172839,0,0,0.06172839506172839,32.098765432098766,0)" xlink:href="#an"/><use transform="matrix(0.06172839506172839,0,0,0.06172839506172839,36.97530864197531,0)" xlink:href="#ao"/><use transform="matrix(0.06172839506172839,0,0,0.06172839506172839,49.32098765432099,0)" xlink:href="#ah"/><use transform="matrix(0.06172839506172839,0,0,0.06172839506172839,61.666666666666664,0)" xlink:href="#at"/></g><g id="r"><use transform="matrix(0.06172839506172839,0,0,0.06172839506172839,0,0)" xlink:href="#au"/><use transform="matrix(0.06172839506172839,0,0,0.06172839506172839,14.814814814814813,0)" xlink:href="#am"/><use transform="matrix(0.06172839506172839,0,0,0.06172839506172839,20.98765432098765,0)" xlink:href="#ao"/><use transform="matrix(0.06172839506172839,0,0,0.06172839506172839,33.33333333333333,0)" xlink:href="#aj"/><use transform="matrix(0.06172839506172839,0,0,0.06172839506172839,40.679012345679006,0)" xlink:href="#aw"/><use transform="matrix(0.06172839506172839,0,0,0.06172839506172839,53.02469135802468,0)" xlink:href="#ax"/><use transform="matrix(0.06172839506172839,0,0,0.06172839506172839,65.37037037037037,0)" xlink:href="#az"/><use transform="matrix(0.06172839506172839,0,0,0.06172839506172839,77.71604938271605,0)" xlink:href="#at"/></g><path fill="#333" d="M30 0v-248h33v221h125V0H30" id="aE"/><g id="s"><use transform="matrix(0.06172839506172839,0,0,0.06172839506172839,0,0)" xlink:href="#aE"/><use transform="matrix(0.06172839506172839,0,0,0.06172839506172839,12.345679012345679,0)" xlink:href="#ao"/><use transform="matrix(0.06172839506172839,0,0,0.06172839506172839,24.691358024691358,0)" xlink:href="#ai"/><use transform="matrix(0.06172839506172839,0,0,0.06172839506172839,35.80246913580247,0)" xlink:href="#aw"/><use transform="matrix(0.06172839506172839,0,0,0.06172839506172839,48.148148148148145,0)" xlink:href="#am"/><use transform="matrix(0.06172839506172839,0,0,0.06172839506172839,54.32098765432099,0)" xlink:href="#an"/><use transform="matrix(0.06172839506172839,0,0,0.06172839506172839,59.19753086419753,0)" xlink:href="#ao"/><use transform="matrix(0.06172839506172839,0,0,0.06172839506172839,71.54320987654322,0)" xlink:href="#ah"/><use transform="matrix(0.06172839506172839,0,0,0.06172839506172839,83.8888888888889,0)" xlink:href="#at"/></g><path fill="#333" d="M108 0H70L1-190h34L89-25l56-165h34" id="aF"/><g id="t"><use transform="matrix(0.06172839506172839,0,0,0.06172839506172839,0,0)" xlink:href="#at"/><use transform="matrix(0.06172839506172839,0,0,0.06172839506172839,11.11111111111111,0)" xlink:href="#az"/><use transform="matrix(0.06172839506172839,0,0,0.06172839506172839,23.45679012345679,0)" xlink:href="#aj"/><use transform="matrix(0.06172839506172839,0,0,0.06172839506172839,30.80246913580247,0)" xlink:href="#aF"/><use transform="matrix(0.06172839506172839,0,0,0.06172839506172839,41.91358024691358,0)" xlink:href="#az"/><use transform="matrix(0.06172839506172839,0,0,0.06172839506172839,54.25925925925926,0)" xlink:href="#aj"/></g><g id="u"><use transform="matrix(0.06172839506172839,0,0,0.06172839506172839,0,0)" xlink:href="#ax"/><use transform="matrix(0.06172839506172839,0,0,0.06172839506172839,12.345679012345679,0)" xlink:href="#aj"/><use transform="matrix(0.06172839506172839,0,0,0.06172839506172839,19.691358024691358,0)" xlink:href="#ao"/><use transform="matrix(0.06172839506172839,0,0,0.06172839506172839,32.03703703703704,0)" xlink:href="#aC"/><use transform="matrix(0.06172839506172839,0,0,0.06172839506172839,44.382716049382715,0)" xlink:href="#al"/><use transform="matrix(0.06172839506172839,0,0,0.06172839506172839,56.72839506172839,0)" xlink:href="#at"/></g><g id="v"><use transform="matrix(0.06172839506172839,0,0,0.06172839506172839,0,0)" xlink:href="#aA"/><use transform="matrix(0.06172839506172839,0,0,0.06172839506172839,15.987654320987653,0)" xlink:href="#ao"/><use transform="matrix(0.06172839506172839,0,0,0.06172839506172839,28.333333333333332,0)" xlink:href="#aB"/><use transform="matrix(0.06172839506172839,0,0,0.06172839506172839,46.79012345679012,0)" xlink:href="#aB"/><use transform="matrix(0.06172839506172839,0,0,0.06172839506172839,65.24691358024691,0)" xlink:href="#aC"/><use transform="matrix(0.06172839506172839,0,0,0.06172839506172839,77.5925925925926,0)" xlink:href="#ah"/><use transform="matrix(0.06172839506172839,0,0,0.06172839506172839,89.93827160493828,0)" xlink:href="#an"/><use transform="matrix(0.06172839506172839,0,0,0.06172839506172839,94.81481481481482,0)" xlink:href="#ai"/><use transform="matrix(0.06172839506172839,0,0,0.06172839506172839,105.92592592592594,0)" xlink:href="#aw"/><use transform="matrix(0.06172839506172839,0,0,0.06172839506172839,118.27160493827162,0)" xlink:href="#am"/><use transform="matrix(0.06172839506172839,0,0,0.06172839506172839,124.44444444444446,0)" xlink:href="#an"/><use transform="matrix(0.06172839506172839,0,0,0.06172839506172839,129.320987654321,0)" xlink:href="#ao"/><use transform="matrix(0.06172839506172839,0,0,0.06172839506172839,141.66666666666666,0)" xlink:href="#ah"/></g><path fill="#333" d="M85-194c31 0 48 13 60 33l-1-100h32l1 261h-30c-2-10 0-23-3-31C134-8 116 4 85 4 32 4 16-35 15-94c0-66 23-100 70-100zm9 24c-40 0-46 34-46 75 0 40 6 74 45 74 42 0 51-32 51-76 0-42-9-74-50-73" id="aG"/><path fill="#333" d="M24 0v-261h32V0H24" id="aH"/><g id="w"><use transform="matrix(0.06172839506172839,0,0,0.06172839506172839,0,0)" xlink:href="#aB"/><use transform="matrix(0.06172839506172839,0,0,0.06172839506172839,18.456790123456788,0)" xlink:href="#ao"/><use transform="matrix(0.06172839506172839,0,0,0.06172839506172839,30.80246913580247,0)" xlink:href="#aG"/><use transform="matrix(0.06172839506172839,0,0,0.06172839506172839,43.148148148148145,0)" xlink:href="#az"/><use transform="matrix(0.06172839506172839,0,0,0.06172839506172839,55.49382716049382,0)" xlink:href="#aH"/><use transform="matrix(0.06172839506172839,0,0,0.06172839506172839,60.37037037037037,0)" xlink:href="#at"/></g></defs></g></svg>